<svg t="1656296356619" class="icon" viewBox="0 0 1024 1024" version="1.1" xmlns="http://www.w3.org/2000/svg" p-id="10192" width="32" height="32"><path d="M2.323 512C2.323 230.513 230.513 2.323 512 2.323S1021.677 230.513 1021.677 512 793.487 1021.677 512 1021.677 2.323 793.487 2.323 512L2.323 512zM664.053 441.296c-102.278-0.011-185.336 83.036-185.402 185.369-0.055 102.377 83.201 185.567 185.677 185.523 101.981-0.044 185.072-83.135 185.226-185.237C849.697 524.552 766.518 441.306 664.053 441.296zM689.881 615.395c9.786 0 19.572 0.11 29.357-0.055 3.112-0.055 4.002 0.99 3.892 3.991-0.209 5.619-0.055 11.237-0.055 17.296l-49.237 0 0 27.488 48.918 0 0 21.155L673.74 685.27c-0.088 1.792-0.209 3.211-0.209 4.629-0.011 10.896-0.099 21.804 0.044 32.7 0.044 3.068-0.913 4.035-3.958 3.936-6.234-0.209-12.48-0.209-18.714 0-3.013 0.099-4.002-0.792-3.947-3.892 0.176-10.896 0.066-21.804 0.066-32.7l0-4.431-51.315 0 0-21.188 51.084 0L646.791 636.78l-51.37 0c0-6.784-0.11-13.117 0.154-19.44 0.033-0.693 2.232-1.836 3.442-1.847 11.743-0.143 23.486-0.088 35.229-0.088 1.33 0 2.65 0 4.772 0-17.933-30.831-35.526-61.09-53.492-91.975 1.924-0.121 3.178-0.275 4.442-0.275 6.85-0.022 13.7 0.176 20.55-0.088 3.365-0.132 5.212 0.957 6.784 3.991 14.228 27.323 28.61 54.559 42.958 81.827 0.11 0.209 0.286 0.385 0.253 0.341 14.822-27.554 29.665-55.053 44.377-82.651 1.418-2.661 3.035-3.573 5.959-3.486 6.597 0.209 13.205 0.055 19.813 0.077 1.177 0 2.353 0.11 4.211 0.209-18.098 30.809-35.889 61.101-54.053 92.03C684.35 615.395 687.121 615.395 689.881 615.395zM300.198 231.253c4.937 3.573 9.984 7.642 15.118 12.205 5.146 4.563 9.775 9.819 13.887 15.778 2.056 3.178 4.53 6.751 7.411 10.72 2.881 3.969 5.553 7.939 8.027 11.908 2.881 4.365 5.762 8.928 8.642 13.689L481.07 295.553c2.881-3.969 5.553-8.136 8.027-12.502 2.056-3.573 4.321-7.147 6.795-10.72 2.463-3.573 4.728-6.751 6.795-9.522 4.112-5.553 8.235-10.819 12.348-15.778 4.112-4.959 10.083-9.819 17.9-14.58 3.299-1.99 6.069-4.563 8.334-7.741 2.265-3.178 3.705-6.344 4.321-9.522 0.616-3.178 0.209-6.256-1.231-9.225-1.44-2.98-4.211-5.256-8.334-6.839-3.705-1.188-6.894-1.583-9.566-1.188-2.672 0.396-5.355 1.089-8.027 2.089-2.672 0.99-5.454 2.089-8.334 3.277-2.881 1.188-6.377 1.781-10.5 1.781-4.112 0-7.51-0.693-10.182-2.089-2.672-1.385-5.146-3.079-7.411-5.058-2.265-1.979-4.629-4.068-7.103-6.256-2.463-2.188-5.762-3.87-9.874-5.058-8.224-3.178-14.811-3.771-19.747-1.781-4.937 1.99-9.874 5.157-14.822 9.522-4.112 3.969-7.411 6.751-9.874 8.334-1.231 0.792-2.265 1.187-3.09 1.187-2.474-1.187-4.728-2.573-6.795-4.167-2.056-1.198-4.013-2.485-5.861-3.87-1.847-1.385-3.595-3.068-5.245-5.058-3.288-3.178-8.224-5.256-14.811-6.256-6.586-0.99-12.546 0.099-17.9 3.277-6.993 4.365-11.93 8.038-14.811 11.017-2.881 2.98-7.202 5.058-12.963 6.245-3.288 0.792-6.894 0.594-10.797-0.594-3.903-1.187-7.917-2.375-12.04-3.573-4.112-1.188-8.027-1.979-11.732-2.386-3.727-0.418-7.015 0.385-9.896 2.364-5.762 4.365-7.609 9.621-5.553 15.778C291.148 222.809 294.854 227.679 300.198 231.253zM591.682 424.451c-0.352-0.385-0.682-0.814-1.034-1.198-10.489-11.314-20.682-21.133-30.556-29.467-11.93-9.522-22.43-18.56-31.479-27.092-9.06-8.532-16.669-16.174-22.837-22.925-7.411-7.543-13.579-14.481-18.516-20.836l-138.914 0c-5.355 6.751-11.523 13.887-18.516 21.43-5.762 6.751-12.963 14.195-21.606 22.331-8.642 8.136-18.318 16.768-29.017 25.894-12.348 10.325-23.761 22.024-34.261 35.13-10.5 13.106-19.242 27.488-26.235 43.167s-11.831 32.447-14.503 50.314c-2.672 17.856-2.166 36.515 1.539 55.966 3.299 17.461 10.083 35.031 20.374 52.689s24.179 33.635 41.672 47.928c17.493 14.283 38.791 25.905 63.893 34.833 25.102 8.928 53.91 13.392 86.423 13.392 19.033 0 36.691-1.572 53.272-4.365-14.184-28.687-22.353-60.848-22.342-94.977C449.106 533.414 508.679 454.215 591.682 424.451z" p-id="10193" fill="#ff5b57"></path></svg>
                    